HIERARCHY
ROOT Hips
{
  OFFSET 5.72205e-005 65.662 3.42586
  CHANNELS 6 Xposition Yposition Zposition Zrotation Xrotation Yrotation
  JOINT Chest
  {
    OFFSET 0 8.7983 -4.7612
    CHANNELS 6 Xposition Yposition Zposition Zrotation Xrotation Yrotation
    JOINT Chest2
    {
      OFFSET 0 8.0291 0.4195
      CHANNELS 6 Xposition Yposition Zposition Zrotation Xrotation Yrotation
      JOINT Chest3
      {
        OFFSET 0 9.9351 -2.2114
        CHANNELS 6 Xposition Yposition Zposition Zrotation Xrotation Yrotation
        JOINT Neck
        {
          OFFSET 0 22.3885 -0.4656
          CHANNELS 6 Xposition Yposition Zposition Zrotation Xrotation Yrotation
          JOINT Head
          {
            OFFSET -0.0001 12.643 3.4389
            CHANNELS 6 Xposition Yposition Zposition Zrotation Xrotation Yrotation
            End Site
            {
              OFFSET 0.0001 17.6655 0.5274
            }
          }
        }
        JOINT LeftCollar
        {
          OFFSET 2.2603 21.606 7.4023
          CHANNELS 6 Xposition Yposition Zposition Zrotation Xrotation Yrotation
          JOINT LeftShoulder
          {
            OFFSET 13.5163 -1.1332 -5.0146
            CHANNELS 6 Xposition Yposition Zposition Zrotation Xrotation Yrotation
            JOINT LeftElbow
            {
              OFFSET -0.0995 -28.05 -0.2431
              CHANNELS 6 Xposition Yposition Zposition Zrotation Xrotation Yrotation
              JOINT LeftWrist
              {
                OFFSET 0.0679 -23.3996 -0.1402
                CHANNELS 6 Xposition Yposition Zposition Zrotation Xrotation Yrotation
                JOINT LeftFinger1
                {
                  OFFSET 0.7932 -9.069 2.5189
                  CHANNELS 6 Xposition Yposition Zposition Zrotation Xrotation Yrotation
                  JOINT LeftFinger11
                  {
                    OFFSET -0.8272 -3.3923 0.5977
                    CHANNELS 6 Xposition Yposition Zposition Zrotation Xrotation Yrotation
                    JOINT LeftFinger12
                    {
                      OFFSET -0.5649 -2.3158 0.4082
                      CHANNELS 6 Xposition Yposition Zposition Zrotation Xrotation Yrotation
                      End Site
                      {
                        OFFSET -0.4919 -1.6479 0.2673
                      }
                    }
                  }
                }
                JOINT LeftFinger2
                {
                  OFFSET 0.9159 -9.2044 0.2193
                  CHANNELS 6 Xposition Yposition Zposition Zrotation Xrotation Yrotation
                  JOINT LeftFinger21
                  {
                    OFFSET 0.0117 -4.1944 -0.0248
                    CHANNELS 6 Xposition Yposition Zposition Zrotation Xrotation Yrotation
                    JOINT LeftFinger22
                    {
                      OFFSET 0.0071 -2.3249 -0.0142
                      CHANNELS 6 Xposition Yposition Zposition Zrotation Xrotation Yrotation
                      End Site
                      {
                        OFFSET -0.1475 -2.0882 0.0028
                      }
                    }
                  }
                }
                JOINT LeftFinger3
                {
                  OFFSET 0.6113 -8.7231 -2.0637
                  CHANNELS 6 Xposition Yposition Zposition Zrotation Xrotation Yrotation
                  JOINT LeftFinger31
                  {
                    OFFSET -0.1927 -3.8059 -0.2383
                    CHANNELS 6 Xposition Yposition Zposition Zrotation Xrotation Yrotation
                    JOINT LeftFinger32
                    {
                      OFFSET -0.1091 -2.1688 -0.1362
                      CHANNELS 6 Xposition Yposition Zposition Zrotation Xrotation Yrotation
                      End Site
                      {
                        OFFSET -0.2358 -1.9176 -0.0906
                      }
                    }
                  }
                }
                JOINT LeftFinger4
                {
                  OFFSET -0.6151 -8.0947 -3.5641
                  CHANNELS 6 Xposition Yposition Zposition Zrotation Xrotation Yrotation
                  JOINT LeftFinger41
                  {
                    OFFSET -0.4882 -2.341 -0.6462
                    CHANNELS 6 Xposition Yposition Zposition Zrotation Xrotation Yrotation
                    JOINT LeftFinger42
                    {
                      OFFSET -0.3575 -1.7167 -0.4742
                      CHANNELS 6 Xposition Yposition Zposition Zrotation Xrotation Yrotation
                      End Site
                      {
                        OFFSET -0.4187 -1.5237 -0.3496
                      }
                    }
                  }
                }
                JOINT LeftFinger0
                {
                  OFFSET -1.42 -1.8761 1.4223
                  CHANNELS 6 Xposition Yposition Zposition Zrotation Xrotation Yrotation
                  JOINT LeftFinger01
                  {
                    OFFSET -1.1471 -3.4929 2.6334
                    CHANNELS 6 Xposition Yposition Zposition Zrotation Xrotation Yrotation
                    JOINT LeftFinger02
                    {
                      OFFSET -0.823 -2.3 1.6571
                      CHANNELS 6 Xposition Yposition Zposition Zrotation Xrotation Yrotation
                      End Site
                      {
                        OFFSET -0.5822 -1.6914 1.1582
                      }
                    }
                  }
                }
              }
            }
          }
        }
        JOINT RightCollar
        {
          OFFSET -2.2603 21.606 7.4023
          CHANNELS 6 Xposition Yposition Zposition Zrotation Xrotation Yrotation
          JOINT RightShoulder
          {
            OFFSET -13.5187 -1.1334 -5.0155
            CHANNELS 6 Xposition Yposition Zposition Zrotation Xrotation Yrotation
            JOINT RightElbow
            {
              OFFSET 0.0994 -28.0499 -0.2431
              CHANNELS 6 Xposition Yposition Zposition Zrotation Xrotation Yrotation
              JOINT RightWrist
              {
                OFFSET -0.0679 -23.3996 -0.1402
                CHANNELS 6 Xposition Yposition Zposition Zrotation Xrotation Yrotation
                JOINT RightFinger1
                {
                  OFFSET -0.7932 -9.0691 2.5189
                  CHANNELS 6 Xposition Yposition Zposition Zrotation Xrotation Yrotation
                  JOINT RightFinger11
                  {
                    OFFSET 0.8272 -3.3923 0.5977
                    CHANNELS 6 Xposition Yposition Zposition Zrotation Xrotation Yrotation
                    JOINT RightFinger12
                    {
                      OFFSET 0.565 -2.3158 0.4082
                      CHANNELS 6 Xposition Yposition Zposition Zrotation Xrotation Yrotation
                      End Site
                      {
                        OFFSET 0.4919 -1.6479 0.2673
                      }
                    }
                  }
                }
                JOINT RightFinger2
                {
                  OFFSET -0.916 -9.2044 0.2193
                  CHANNELS 6 Xposition Yposition Zposition Zrotation Xrotation Yrotation
                  JOINT RightFinger21
                  {
                    OFFSET -0.0117 -4.1944 -0.0248
                    CHANNELS 6 Xposition Yposition Zposition Zrotation Xrotation Yrotation
                    JOINT RightFinger22
                    {
                      OFFSET -0.0071 -2.3249 -0.0142
                      CHANNELS 6 Xposition Yposition Zposition Zrotation Xrotation Yrotation
                      End Site
                      {
                        OFFSET 0.1475 -2.0882 0.0028
                      }
                    }
                  }
                }
                JOINT RightFinger3
                {
                  OFFSET -0.6113 -8.7231 -2.0637
                  CHANNELS 6 Xposition Yposition Zposition Zrotation Xrotation Yrotation
                  JOINT RightFinger31
                  {
                    OFFSET 0.1927 -3.8059 -0.2383
                    CHANNELS 6 Xposition Yposition Zposition Zrotation Xrotation Yrotation
                    JOINT RightFinger32
                    {
                      OFFSET 0.1091 -2.1688 -0.1362
                      CHANNELS 6 Xposition Yposition Zposition Zrotation Xrotation Yrotation
                      End Site
                      {
                        OFFSET 0.2358 -1.9176 -0.0906
                      }
                    }
                  }
                }
                JOINT RightFinger4
                {
                  OFFSET 0.6151 -8.0947 -3.564
                  CHANNELS 6 Xposition Yposition Zposition Zrotation Xrotation Yrotation
                  JOINT RightFinger41
                  {
                    OFFSET 0.4882 -2.341 -0.6462
                    CHANNELS 6 Xposition Yposition Zposition Zrotation Xrotation Yrotation
                    JOINT RightFinger42
                    {
                      OFFSET 0.3574 -1.7166 -0.4742
                      CHANNELS 6 Xposition Yposition Zposition Zrotation Xrotation Yrotation
                      End Site
                      {
                        OFFSET 0.4187 -1.5237 -0.3496
                      }
                    }
                  }
                }
                JOINT RightFinger0
                {
                  OFFSET 1.4199 -1.8761 1.4221
                  CHANNELS 6 Xposition Yposition Zposition Zrotation Xrotation Yrotation
                  JOINT RightFinger01
                  {
                    OFFSET 1.1472 -3.4929 2.6336
                    CHANNELS 6 Xposition Yposition Zposition Zrotation Xrotation Yrotation
                    JOINT RightFinger02
                    {
                      OFFSET 0.8229 -2.3 1.6571
                      CHANNELS 6 Xposition Yposition Zposition Zrotation Xrotation Yrotation
                      End Site
                      {
                        OFFSET 0.5822 -1.6914 1.1582
                      }
                    }
                  }
                }
              }
            }
          }
        }
      }
    }
  }
  JOINT RightHip
  {
    OFFSET -9.412 3.9771 -0.7758
    CHANNELS 6 Xposition Yposition Zposition Zrotation Xrotation Yrotation
    JOINT RightKnee
    {
      OFFSET -0.7531 -40.938 0
      CHANNELS 6 Xposition Yposition Zposition Zrotation Xrotation Yrotation
      JOINT RightAnkle
      {
        OFFSET 0 -40.1986 0
        CHANNELS 6 Xposition Yposition Zposition Zrotation Xrotation Yrotation
        JOINT RightToe
        {
          OFFSET 0 -4.4182 9.239
          CHANNELS 6 Xposition Yposition Zposition Zrotation Xrotation Yrotation
          End Site
          {
            OFFSET 0 0 6.1981
          }
        }
      }
    }
  }
  JOINT LeftHip
  {
    OFFSET 9.4119 3.9773 -0.7758
    CHANNELS 6 Xposition Yposition Zposition Zrotation Xrotation Yrotation
    JOINT LeftKnee
    {
      OFFSET 0.7532 -40.9383 0
      CHANNELS 6 Xposition Yposition Zposition Zrotation Xrotation Yrotation
      JOINT LeftAnkle
      {
        OFFSET 0 -40.1986 0
        CHANNELS 6 Xposition Yposition Zposition Zrotation Xrotation Yrotation
        JOINT LeftToe
        {
          OFFSET 0 -4.4182 9.239
          CHANNELS 6 Xposition Yposition Zposition Zrotation Xrotation Yrotation
          End Site
          {
            OFFSET 0 0 6.1981
          }
        }
      }
    }
  }
}
MOTION
Frames:	4
Frame Time:	0.0333333
-58.4503 14.8312 23.823 -7.00662 -0.00235236 89.998 0 8.7983 -4.7612 -0.00997991 13.4062 -0.956827 0 8.0291 0.4195 0.227785 26.8194 -1.99713 -3.55271e-015 9.9351 -2.2114 0.227776 26.8191 -1.99712 0 22.3885 -0.4656 -0.00226263 -27.0032 40.9964 -0.0001 12.643 3.4389 0.329132 -13.752 -41.4926 2.2603 21.606 7.4023 -5.0865 -8.23679 -18.867 13.5163 -1.1332 -5.0146 108.381 -73.4189 0.0429347 -0.0995 -28.05 -0.2431 -3.53425 -15.8631 18.9251 0.0679 -23.3996 -0.1402 44.0927 -6.46115 25.1751 0.7932 -9.069 2.5189 -1.11319e-014 3.18055e-015 3.18055e-015 -0.8272 -3.3923 0.5977 -4.77083e-015 3.18055e-015 -3.18055e-015 -0.5649 -2.3158 0.4082 -3.18055e-015 1.11319e-014 -1.27222e-014 0.9159 -9.2044 0.2193 -1.11319e-014 3.18055e-015 3.18055e-015 0.0117 -4.1944 -0.0248 -0.0128153 0.00231745 9.2156e-005 0.0071 -2.3249 -0.0142 1.59028e-015 4.77083e-015 -0 0.6113 -8.7231 -2.0637 -1.11319e-014 3.18055e-015 3.18055e-015 -0.1927 -3.8059 -0.2383 -0.016068 0.00300004 0.00085767 -0.1091 -2.1688 -0.1362 -4.77083e-015 -4.77083e-015 -0 -0.6151 -8.0947 -3.5641 -1.11319e-014 3.18055e-015 3.18055e-015 -0.4882 -2.341 -0.6462 -0.0126057 0.00312373 0.00283411 -0.3575 -1.7167 -0.4742 6.36111e-015 -1.59028e-015 -0 -1.42 -1.8761 1.4223 -1.11319e-014 3.18055e-015 3.18055e-015 -1.1471 -3.4929 2.6334 -4.77083e-015 3.18055e-015 -3.18055e-015 -0.823 -2.3 1.6571 -3.18055e-015 1.11319e-014 -1.27222e-014 -2.2603 21.606 7.4023 -0.87853 -9.83595 6.88605 -13.5187 -1.1334 -5.0155 -65.6762 -29.8503 -63.9424 0.0994 -28.0499 -0.2431 51.3492 -73.8641 23.1431 -0.0679 -23.3996 -0.1402 11.4813 -7.88901 20.5101 -0.7932 -9.0691 2.5189 -8.50823e-006 -1.26478e-005 7.27984e-006 0.8272 -3.3923 0.5977 3.03276e-006 6.45428e-006 5.07753e-006 0.565 -2.3158 0.4082 3.89376e-006 4.49922e-006 1.16058e-005 -0.916 -9.2044 0.2193 -8.50823e-006 -1.26478e-005 7.27984e-006 -0.0117 -4.1944 -0.0248 0.0129172 0.00231807 -7.77626e-005 -0.0071 -2.3249 -0.0142 -7.93467e-006 -4.06182e-006 1.16317e-005 -0.6113 -8.7231 -2.0637 -8.50823e-006 -1.26478e-005 7.27984e-006 0.1927 -3.8059 -0.2383 0.0163275 0.00304173 -0.000869794 0.1091 -2.1688 -0.1362 -4.24063e-006 -1.01931e-005 1.55383e-007 0.6151 -8.0947 -3.564 -8.50823e-006 -1.26478e-005 7.27984e-006 0.4882 -2.341 -0.6462 0.014566 0.00367643 -0.00325154 0.3574 -1.7166 -0.4742 3.03241e-006 9.40938e-006 5.07773e-006 1.4199 -1.8761 1.4221 -8.50823e-006 -1.26478e-005 7.27984e-006 1.1472 -3.4929 2.6336 3.03276e-006 6.45428e-006 5.07753e-006 0.8229 -2.3 1.6571 3.89376e-006 4.49922e-006 1.16058e-005 -9.412 3.9771 -0.7758 -7.69613 -31.1735 -4.51104 -0.7531 -40.938 7.10543e-015 179.927 56.615 175.747 -7.10543e-015 -40.1986 0 -0.570895 53.0591 -2.59115 0 -4.4182 9.239 7.42778e-007 1.94961e-006 -3.87129e-007 9.4119 3.9773 -0.7758 5.52854 -30.273 -3.29528 0.7532 -40.9383 0 -179.914 53.8684 -175.59 3.55271e-015 -40.1986 0 0.353459 52.6821 2.81122 0 -4.4182 9.239 4.77083e-015 -4.96962e-015 -0 
-58.4503 14.8312 23.823 -7.0058 -0.00235158 89.998 -3.55271e-015 8.7983 -4.7612 0.0237304 13.3215 -0.968015 0 8.0291 0.4195 0.299156 26.6474 -2.02802 0 9.9351 -2.2114 0.299153 26.6474 -2.02799 0 22.3885 -0.4656 -0.00228774 -27.0031 40.9964 -0.0001 12.643 3.4389 0.322415 -13.3906 -41.4426 2.2603 21.606 7.4023 -5.09761 -8.23218 -18.881 13.5163 -1.1332 -5.0146 107.124 -73.6343 0.515847 -0.0995 -28.05 -0.2431 -3.75573 -16.9203 18.8189 0.0679 -23.3996 -0.1402 44.0927 -6.46114 25.1751 0.7932 -9.069 2.5189 -1.59028e-015 -9.54166e-015 3.18055e-015 -0.8272 -3.3923 0.5977 8.78418e-008 -4.96358e-006 -4.81761e-006 -0.5649 -2.3158 0.4082 -3.18055e-015 6.36111e-015 6.36111e-015 0.9159 -9.2044 0.2193 -1.59028e-015 -9.54166e-015 3.18055e-015 0.0117 -4.1944 -0.0248 -0.0128246 0.00232192 8.83592e-005 0.0071 -2.3249 -0.0142 1.59028e-015 1.59028e-015 -0 0.6113 -8.7231 -2.0637 -1.59028e-015 -9.54166e-015 3.18055e-015 -0.1927 -3.8059 -0.2383 -0.0160583 0.00297764 0.00087053 -0.1091 -2.1688 -0.1362 -9.39023e-006 1.51226e-005 -7.91951e-006 -0.6151 -8.0947 -3.5641 -1.59028e-015 -9.54166e-015 3.18055e-015 -0.4882 -2.341 -0.6462 -0.0125629 0.00311337 0.0028217 -0.3575 -1.7167 -0.4742 -4.77083e-015 -4.77083e-015 -6.36111e-015 -1.42 -1.8761 1.4223 -1.59028e-015 -9.54166e-015 3.18055e-015 -1.1471 -3.4929 2.6334 8.78418e-008 -4.96358e-006 -4.81761e-006 -0.823 -2.3 1.6571 -3.18055e-015 6.36111e-015 6.36111e-015 -2.2603 21.606 7.4023 -0.878555 -9.83579 6.88605 -13.5187 -1.1334 -5.0155 -64.7876 -30.9358 -63.0249 0.0994 -28.0499 -0.2431 53.5635 -74.2894 25.3063 -0.0679 -23.3996 -0.1402 11.4814 -7.88902 20.5101 -0.7932 -9.0691 2.5189 -7.15625e-015 -3.33958e-014 -0 0.8272 -3.3923 0.5977 -7.26218e-006 -2.97257e-006 2.21281e-006 0.565 -2.3158 0.4082 3.91038e-006 6.73379e-007 -2.44385e-006 -0.916 -9.2044 0.2193 -7.15625e-015 -3.33958e-014 -0 -0.0117 -4.1944 -0.0248 0.0129856 0.00232155 -8.30541e-005 -0.0071 -2.3249 -0.0142 -3.6932e-006 -1.87814e-006 -2.34175e-006 -0.6113 -8.7231 -2.0637 -7.15625e-015 -3.33958e-014 -0 0.1927 -3.8059 -0.2383 0.0163411 0.00303478 -0.000868239 0.1091 -2.1688 -0.1362 8.16353e-006 4.60544e-006 -2.77677e-006 0.6151 -8.0947 -3.564 -7.15625e-015 -3.33958e-014 -0 0.4882 -2.341 -0.6462 0.014653 0.00370394 -0.00327755 0.3574 -1.7166 -0.4742 5.59283e-007 -1.85933e-006 -2.67496e-006 1.4199 -1.8761 1.4221 -7.15625e-015 -3.33958e-014 -0 1.1472 -3.4929 2.6336 -7.26218e-006 -2.97257e-006 2.21281e-006 0.8229 -2.3 1.6571 3.91038e-006 6.73379e-007 -2.44385e-006 -9.412 3.9771 -0.7758 -7.69608 -31.1727 -4.5109 -0.7531 -40.938 7.10543e-015 179.927 56.6151 175.747 0 -40.1986 3.55271e-015 -0.570883 53.0591 -2.59114 0 -4.4182 9.239 3.0674e-006 -2.76612e-005 2.25233e-006 9.4119 3.9773 -0.7758 5.52849 -30.2721 -3.29537 0.7532 -40.9383 -7.10543e-015 -179.914 53.8684 -175.59 0 -40.1986 0 0.353473 52.6822 2.8112 0 -4.4182 9.239 1.53246e-006 -2.05169e-006 -6.61249e-007 
-58.4503 14.8312 23.823 -7.00582 -0.00235183 89.998 0 8.7983 -4.7612 0.0573307 13.236 -0.979075 0 8.0291 0.4195 0.370165 26.4757 -2.0585 3.55271e-015 9.9351 -2.2114 0.37018 26.4754 -2.05852 0 22.3885 -0.4656 -0.00229321 -27.003 40.9965 -0.0001 12.643 3.4389 0.315381 -13.0293 -41.3926 2.2603 21.606 7.4023 -5.10871 -8.22747 -18.895 13.5163 -1.1332 -5.0146 105.854 -73.8539 0.980374 -0.0995 -28.05 -0.2431 -3.98137 -17.9808 18.7074 0.0679 -23.3996 -0.1402 44.0927 -6.46117 25.1751 0.7932 -9.069 2.5189 -7.28477e-006 1.37629e-005 -3.73911e-006 -0.8272 -3.3923 0.5977 -4.64415e-006 -2.3803e-006 4.48562e-006 -0.5649 -2.3158 0.4082 1.59028e-015 1.59028e-015 -9.54166e-015 0.9159 -9.2044 0.2193 -7.28477e-006 1.37629e-005 -3.73911e-006 0.0117 -4.1944 -0.0248 -0.0127979 0.00231775 8.94172e-005 0.0071 -2.3249 -0.0142 -3.411e-006 6.21475e-006 -2.91862e-006 0.6113 -8.7231 -2.0637 -7.28477e-006 1.37629e-005 -3.73911e-006 -0.1927 -3.8059 -0.2383 -0.0160635 0.00300887 0.000868872 -0.1091 -2.1688 -0.1362 1.08659e-005 -1.49413e-005 -2.94967e-006 -0.6151 -8.0947 -3.5641 -7.28477e-006 1.37629e-005 -3.73911e-006 -0.4882 -2.341 -0.6462 -0.0125954 0.00311506 0.00283455 -0.3575 -1.7167 -0.4742 -4.3311e-006 6.68834e-006 1.27645e-006 -1.42 -1.8761 1.4223 -7.28477e-006 1.37629e-005 -3.73911e-006 -1.1471 -3.4929 2.6334 -4.64415e-006 -2.3803e-006 4.48562e-006 -0.823 -2.3 1.6571 1.59028e-015 1.59028e-015 -9.54166e-015 -2.2603 21.606 7.4023 -0.878555 -9.83575 6.88607 -13.5187 -1.1334 -5.0155 -63.8684 -32.0079 -62.0771 0.0994 -28.0499 -0.2431 55.8924 -74.69 27.5841 -0.0679 -23.3996 -0.1402 11.4814 -7.88902 20.5101 -0.7932 -9.0691 2.5189 -9.54058e-006 -1.23539e-005 6.48408e-006 0.8272 -3.3923 0.5977 8.0061e-006 1.69306e-005 1.70851e-006 0.565 -2.3158 0.4082 -6.70707e-006 -9.27407e-006 -3.53264e-007 -0.916 -9.2044 0.2193 -9.54058e-006 -1.23539e-005 6.48408e-006 -0.0117 -4.1944 -0.0248 0.0129467 0.00232036 -8.49803e-005 -0.0071 -2.3249 -0.0142 7.73088e-006 7.6675e-006 -5.10815e-006 -0.6113 -8.7231 -2.0637 -9.54058e-006 -1.23539e-005 6.48408e-006 0.1927 -3.8059 -0.2383 0.0163031 0.00303082 -0.000872331 0.1091 -2.1688 -0.1362 -8.51996e-006 -7.65149e-006 1.02203e-006 0.6151 -8.0947 -3.564 -9.54058e-006 -1.23539e-005 6.48408e-006 0.4882 -2.341 -0.6462 0.0146107 0.00368708 -0.00327395 0.3574 -1.7166 -0.4742 1.13609e-005 1.24591e-005 1.88555e-006 1.4199 -1.8761 1.4221 -9.54058e-006 -1.23539e-005 6.48408e-006 1.1472 -3.4929 2.6336 8.0061e-006 1.69306e-005 1.70851e-006 0.8229 -2.3 1.6571 -6.70707e-006 -9.27407e-006 -3.53264e-007 -9.412 3.9771 -0.7758 -7.69609 -31.1728 -4.51091 -0.7531 -40.938 7.10543e-015 179.927 56.615 175.747 0 -40.1986 0 -0.570873 53.0592 -2.59118 7.10543e-015 -4.4182 9.239 1.74745e-006 -3.05859e-005 2.96309e-006 9.4119 3.9773 -0.7758 5.5285 -30.2721 -3.29536 0.7532 -40.9383 7.10543e-015 -179.914 53.8684 -175.59 0 -40.1986 3.55271e-015 0.353482 52.6821 2.81122 -3.55271e-015 -4.4182 9.239 1.59028e-015 -6.16232e-015 3.18055e-015 
-58.4503 14.8312 23.823 -6.99248 -0.00234556 89.998 0 8.7983 -4.7612 0.0908406 13.1637 -0.990061 3.55271e-015 8.0291 0.4195 0.440815 26.304 -2.08859 0 9.9351 -2.2114 0.440812 26.3041 -2.08858 0 22.3885 -0.4656 -0.00228274 -27.0032 40.9964 -0.0001 12.643 3.4389 0.308038 -12.6682 -41.3427 2.2603 21.606 7.4023 -5.11979 -8.22304 -18.909 13.5163 -1.1332 -5.0146 104.568 -74.0771 1.43475 -0.0995 -28.05 -0.2431 -4.21159 -19.0444 18.5905 0.0679 -23.3996 -0.1402 44.0927 -6.46112 25.1751 0.7932 -9.069 2.5189 -3.18055e-015 7.95139e-015 -3.18055e-015 -0.8272 -3.3923 0.5977 1.528e-005 -1.4995e-005 7.5647e-006 -0.5649 -2.3158 0.4082 -3.20301e-006 5.60779e-006 -1.7347e-006 0.9159 -9.2044 0.2193 -3.18055e-015 7.95139e-015 -3.18055e-015 0.0117 -4.1944 -0.0248 -0.0128009 0.00230378 9.39157e-005 0.0071 -2.3249 -0.0142 -4.77083e-015 6.36111e-015 -0 0.6113 -8.7231 -2.0637 -3.18055e-015 7.95139e-015 -3.18055e-015 -0.1927 -3.8059 -0.2383 -0.0160296 0.00297687 0.000861339 -0.1091 -2.1688 -0.1362 7.95139e-015 3.18055e-015 -6.36111e-015 -0.6151 -8.0947 -3.5641 -3.18055e-015 7.95139e-015 -3.18055e-015 -0.4882 -2.341 -0.6462 -0.0125875 0.00310544 0.00283761 -0.3575 -1.7167 -0.4742 7.95139e-015 0 -0 -1.42 -1.8761 1.4223 -3.18055e-015 7.95139e-015 -3.18055e-015 -1.1471 -3.4929 2.6334 1.528e-005 -1.4995e-005 7.5647e-006 -0.823 -2.3 1.6571 -3.20301e-006 5.60779e-006 -1.7347e-006 -2.2603 21.606 7.4023 -0.878548 -9.83593 6.88606 -13.5187 -1.1334 -5.0155 -62.9185 -33.0679 -61.0989 0.0994 -28.0499 -0.2431 58.3303 -75.0638 29.9726 -0.0679 -23.3996 -0.1402 11.4814 -7.88904 20.5102 -0.7932 -9.0691 2.5189 3.35429e-006 1.57629e-006 1.21705e-007 0.8272 -3.3923 0.5977 -3.35429e-006 -1.57629e-006 -1.21705e-007 0.565 -2.3158 0.4082 -1.59028e-015 -7.95139e-016 -0 -0.916 -9.2044 0.2193 3.35429e-006 1.57629e-006 1.21705e-007 -0.0117 -4.1944 -0.0248 0.0129384 0.00231137 -9.63083e-005 -0.0071 -2.3249 -0.0142 -7.95139e-016 -1.59028e-015 -3.18055e-015 -0.6113 -8.7231 -2.0637 3.35429e-006 1.57629e-006 1.21705e-007 0.1927 -3.8059 -0.2383 0.0163773 0.00304426 -0.000865951 0.1091 -2.1688 -0.1362 3.97569e-015 0 9.54166e-015 0.6151 -8.0947 -3.564 3.35429e-006 1.57629e-006 1.21705e-007 0.4882 -2.341 -0.6462 0.0145437 0.003665 -0.00325166 0.3574 -1.7166 -0.4742 7.95139e-016 7.95139e-016 3.18055e-015 1.4199 -1.8761 1.4221 3.35429e-006 1.57629e-006 1.21705e-007 1.1472 -3.4929 2.6336 -3.35429e-006 -1.57629e-006 -1.21705e-007 0.8229 -2.3 1.6571 -1.59028e-015 -7.95139e-016 -0 -9.412 3.9771 -0.7758 -7.695 -31.1595 -4.50881 -0.7531 -40.938 0 179.927 56.6151 175.747 7.10543e-015 -40.1986 -3.55271e-015 -0.570869 53.0591 -2.59115 -7.10543e-015 -4.4182 9.239 -2.22833e-006 -5.55409e-006 1.16139e-006 9.4119 3.9773 -0.7758 5.52774 -30.2589 -3.29685 0.7532 -40.9383 0 -179.914 53.8684 -175.59 0 -40.1986 0 0.353471 52.6822 2.81123 0 -4.4182 9.239 -1.53246e-006 2.05169e-006 6.61249e-007 
